<?xml version="1.0" encoding="utf-8"?>
<!-- Svg Vector Icons : http://www.onlinewebfonts.com/icon -->
<!DOCTYPE svg PUBLIC "-//W3C//DTD SVG 1.1//EN" "http://www.w3.org/Graphics/SVG/1.1/DTD/svg11.dtd">
<svg version="1.1" xmlns="http://www.w3.org/2000/svg" xmlns:xlink="http://www.w3.org/1999/xlink" x="0px" y="0px" viewBox="0 0 1000 1000" enable-background="new 0 0 1000 1000" xml:space="preserve">
<metadata> Svg Vector Icons : http://www.onlinewebfonts.com/icon </metadata>
<g><path d="M990,91.5v285.9c0,11.1-4,20.6-12.1,28.7c-8.1,8.1-17.7,12.1-28.7,12.1H663.3c-17.9,0-30.4-8.5-37.7-25.5c-7.2-16.6-4.3-31.3,8.9-44l88-88c-62.9-58.3-137.2-87.4-222.7-87.4c-44.2,0-86.5,8.6-126.7,25.8c-40.2,17.2-75,40.5-104.3,69.9c-29.3,29.3-52.6,64.1-69.9,104.3c-17.2,40.2-25.8,82.4-25.8,126.7c0,44.2,8.6,86.5,25.8,126.7c17.2,40.2,40.5,75,69.9,104.3c29.3,29.3,64.1,52.6,104.3,69.9c40.2,17.2,82.4,25.8,126.7,25.8c50.6,0,98.5-11.1,143.6-33.2s83.2-53.4,114.2-93.8c3-4.3,7.9-6.8,14.7-7.6c6,0,11.3,1.9,16,5.8l87.4,88c3.8,3.4,5.9,7.8,6,13.1s-1.4,10.1-4.8,14.4c-46.4,56.2-102.5,99.7-168.5,130.5C642.7,974.5,573.2,990,500,990c-66.4,0-129.8-13-190.1-38.9c-60.4-25.9-112.5-60.8-156.3-104.6c-43.8-43.8-78.7-95.9-104.6-156.3C23,629.7,10,566.3,10,500s12.9-129.7,38.9-190.1c26-60.4,60.8-112.5,104.6-156.3c43.8-43.8,95.9-78.7,156.3-104.6C370.3,23,433.7,10,500,10c62.5,0,123,11.8,181.5,35.4s110.5,56.9,156,99.8l82.9-82.3c12.3-13.2,27.2-16.2,44.7-8.9c16.6,7.2,24.9,19.8,24.9,37.7V91.5z"/></g>
</svg>